# Blender 5.0.1
# www.blender.org
mtllib bgObject2.mtl
o BgObject
v 0.000000 3.780000 0.000000
v 1.716084 3.368005 0.000000
v 2.672863 2.672863 0.000000
v 3.058084 2.221828 0.000000
v 3.368005 1.716084 0.000000
v 3.780000 0.000000 0.000000
v 3.368005 -1.716084 0.000000
v 3.058084 -2.221828 0.000000
v 2.672863 -2.672863 0.000000
v 1.716084 -3.368005 0.000000
v 1.168084 -3.594994 0.000000
v 0.591322 -3.733462 0.000000
v 0.000000 -3.780000 0.000000
v -0.591322 3.733462 0.000000
v -1.168085 3.594994 -0.000000
v -1.716085 3.368005 0.000000
v -2.221829 3.058084 0.000000
v -2.672864 2.672863 0.000000
v -3.058085 2.221828 -0.000000
v -3.368005 1.716084 -0.000000
v -3.594994 1.168084 0.000000
v -3.733463 0.591322 0.000000
v -3.780001 0.000000 -0.000000
v -3.733463 -0.591322 0.000000
v -3.594994 -1.168084 0.000000
v -3.368005 -1.716084 -0.000000
v -3.058085 -2.221828 -0.000000
v -2.672864 -2.672863 0.000000
v -2.221829 -3.058084 0.000000
v -1.716085 -3.368005 0.000000
v -1.168085 -3.594994 -0.000000
v -0.591322 -3.733462 0.000000
v -0.562381 3.733462 -0.182729
v -1.110914 3.594994 -0.360958
v -1.632093 3.368005 -0.530299
v -2.113085 3.058084 -0.686583
v -2.542045 2.672863 -0.825960
v -2.908412 2.221828 -0.945000
v -3.203163 1.716084 -1.040771
v -3.419042 1.168084 -1.110914
v -3.550735 0.591322 -1.153703
v -3.594995 0.000000 -1.168085
v -3.550735 -0.591322 -1.153703
v -3.419042 -1.168084 -1.110914
v -3.203163 -1.716084 -1.040771
v -2.908412 -2.221828 -0.945000
v -2.542045 -2.672863 -0.825960
v -2.113085 -3.058084 -0.686583
v -1.632093 -3.368005 -0.530299
v -1.110914 -3.594994 -0.360958
v -0.562381 -3.733462 -0.182729
v -0.478390 3.733462 -0.347571
v -0.945000 3.594994 -0.686583
v -1.388342 3.368005 -1.008689
v -1.797497 3.058084 -1.305958
v -2.162393 2.672863 -1.571070
v -2.474042 2.221828 -1.797497
v -2.724774 1.716084 -1.979664
v -2.908411 1.168084 -2.113084
v -3.020435 0.591322 -2.194475
v -3.058085 0.000000 -2.221829
v -3.020435 -0.591322 -2.194475
v -2.908411 -1.168084 -2.113084
v -2.724774 -1.716084 -1.979664
v -2.474042 -2.221828 -1.797497
v -2.162393 -2.672863 -1.571070
v -1.797497 -3.058084 -1.305958
v -1.388342 -3.368005 -1.008689
v -0.945000 -3.594994 -0.686583
v -0.478390 -3.733462 -0.347571
v -0.347571 3.733462 -0.478390
v -0.686583 3.594994 -0.945000
v -1.008689 3.368005 -1.388342
v -1.305958 3.058084 -1.797497
v -1.571070 2.672863 -2.162393
v -1.797497 2.221828 -2.474043
v -1.979664 1.716084 -2.724774
v -2.113084 1.168084 -2.908411
v -2.194475 0.591322 -3.020435
v -2.221829 0.000000 -3.058086
v -2.194475 -0.591322 -3.020435
v -2.113084 -1.168084 -2.908411
v -1.979664 -1.716084 -2.724774
v -1.797497 -2.221828 -2.474043
v -1.571070 -2.672863 -2.162393
v -1.305958 -3.058084 -1.797497
v -1.008689 -3.368005 -1.388342
v -0.686583 -3.594994 -0.945000
v -0.347571 -3.733462 -0.478390
v -0.182729 3.733462 -0.562381
v -0.360958 3.594994 -1.110915
v -0.530299 3.368005 -1.632094
v -0.686583 3.058084 -2.113085
v -0.825961 2.672863 -2.542045
v -0.945000 2.221828 -2.908412
v -1.040771 1.716084 -3.203164
v -1.110914 1.168084 -3.419042
v -1.153704 0.591322 -3.550735
v -1.168085 0.000000 -3.594995
v -1.153704 -0.591322 -3.550735
v -1.110914 -1.168084 -3.419042
v -1.040771 -1.716084 -3.203164
v -0.945000 -2.221828 -2.908412
v -0.825961 -2.672863 -2.542045
v -0.686583 -3.058084 -2.113085
v -0.530299 -3.368005 -1.632094
v -0.360958 -3.594994 -1.110915
v -0.182729 -3.733462 -0.562381
v -0.000000 3.733462 -0.591322
v 0.000000 3.594994 -1.168085
v 0.000000 3.368005 -1.716085
v 0.000000 3.058084 -2.221829
v 0.000000 2.672863 -2.672864
v 0.000000 2.221828 -3.058085
v 0.000000 1.716084 -3.368006
v -0.000000 1.168084 -3.594994
v -0.000000 0.591322 -3.733464
v 0.000000 0.000000 -3.780002
v -0.000000 -0.591322 -3.733464
v -0.000000 -1.168084 -3.594994
v 0.000000 -1.716084 -3.368006
v 0.000000 -2.221828 -3.058085
v 0.000000 -2.672863 -2.672864
v 0.000000 -3.058084 -2.221829
v 0.000000 -3.368005 -1.716085
v 0.000000 -3.594994 -1.168085
v -0.000000 -3.733462 -0.591322
v 0.182729 3.733462 -0.562381
v 0.360958 3.594994 -1.110915
v 0.530299 3.368005 -1.632094
v 0.686583 3.058084 -2.113085
v 0.825961 2.672863 -2.542045
v 0.945001 2.221828 -2.908412
v 1.040771 1.716084 -3.203164
v 1.110914 1.168084 -3.419042
v 1.153704 0.591322 -3.550735
v 1.168085 0.000000 -3.594996
v 1.153704 -0.591322 -3.550735
v 1.110914 -1.168084 -3.419042
v 1.040771 -1.716084 -3.203164
v 0.945001 -2.221828 -2.908412
v 0.825961 -2.672863 -2.542045
v 0.686583 -3.058084 -2.113085
v 0.530299 -3.368005 -1.632094
v 0.360958 -3.594994 -1.110915
v 0.182729 -3.733462 -0.562381
v 0.347571 3.733462 -0.478390
v 0.686583 3.594994 -0.945001
v 1.008689 3.368005 -1.388342
v 1.305959 3.058084 -1.797498
v 1.571070 2.672863 -2.162393
v 1.797498 2.221828 -2.474043
v 1.979664 1.716084 -2.724774
v 2.113084 1.168084 -2.908411
v 2.194475 0.591322 -3.020436
v 2.221830 0.000000 -3.058086
v 2.194475 -0.591322 -3.020436
v 2.113084 -1.168084 -2.908411
v 1.979664 -1.716084 -2.724774
v 1.797498 -2.221828 -2.474043
v 1.571070 -2.672863 -2.162393
v 1.305959 -3.058084 -1.797498
v 1.008689 -3.368005 -1.388342
v 0.686583 -3.594994 -0.945001
v 0.347571 -3.733462 -0.478390
v 0.478390 3.733462 -0.347571
v 0.945001 3.594994 -0.686583
v 1.388342 3.368005 -1.008689
v 1.797498 3.058084 -1.305959
v 2.162393 2.672863 -1.571070
v 2.474043 2.221828 -1.797497
v 2.724774 1.716084 -1.979664
v 2.908411 1.168084 -2.113084
v 3.020436 0.591322 -2.194476
v 3.058086 0.000000 -2.221829
v 3.020436 -0.591322 -2.194476
v 2.908411 -1.168084 -2.113084
v 2.724774 -1.716084 -1.979664
v 2.474043 -2.221828 -1.797497
v 2.162393 -2.672863 -1.571070
v 1.797498 -3.058084 -1.305959
v 1.388342 -3.368005 -1.008689
v 0.945001 -3.594994 -0.686583
v 0.478390 -3.733462 -0.347571
v 0.562381 3.733462 -0.182729
v 1.110915 3.594994 -0.360958
v 1.632094 3.368005 -0.530299
v 2.113086 3.058084 -0.686583
v 2.542046 2.672863 -0.825960
v 2.908412 2.221828 -0.945000
v 3.203164 1.716084 -1.040771
v 3.419042 1.168084 -1.110914
v 3.550735 0.591322 -1.153704
v 3.594996 0.000000 -1.168085
v 3.550735 -0.591322 -1.153704
v 3.419042 -1.168084 -1.110914
v 3.203164 -1.716084 -1.040771
v 2.908412 -2.221828 -0.945000
v 2.542046 -2.672863 -0.825960
v 2.113086 -3.058084 -0.686583
v 1.632094 -3.368005 -0.530299
v 1.110915 -3.594994 -0.360958
v 0.562381 -3.733462 -0.182729
v 0.591322 3.733462 -0.000000
v 1.168085 3.594994 -0.000000
v 2.221830 3.058084 -0.000000
v 3.594994 1.168084 -0.000000
v 3.733464 0.591322 -0.000000
v 3.733464 -0.591322 -0.000000
v 3.594994 -1.168084 -0.000000
v 2.221830 -3.058084 -0.000000
vn 0.5207 0.8497 0.0825
vn 0.9847 -0.0775 0.1560
vn 0.3820 -0.9222 0.0605
vn 0.3820 0.9222 0.0605
vn 0.9847 0.0775 0.1560
vn 0.5207 -0.8497 0.0825
vn 0.2333 0.9717 0.0369
vn 0.9610 0.2307 0.1522
vn 0.6460 -0.7564 0.1023
vn 0.0785 0.9968 0.0124
vn 0.9141 0.3786 0.1448
vn 0.7550 -0.6448 0.1196
vn 0.8450 0.5178 0.1338
vn 0.8450 -0.5178 0.1338
vn 0.7550 0.6448 0.1196
vn 0.9141 -0.3786 0.1448
vn 0.0785 -0.9968 0.0124
vn 0.6460 0.7564 0.1023
vn 0.9610 -0.2307 0.1522
vn 0.2333 -0.9717 0.0369
vn 0.8247 0.3786 0.4202
vn 0.6811 -0.6448 0.3470
vn 0.7623 0.5178 0.3884
vn 0.7623 -0.5178 0.3884
vn 0.6811 0.6448 0.3470
vn 0.8247 -0.3787 0.4202
vn 0.0708 -0.9968 0.0361
vn 0.5828 0.7564 0.2970
vn 0.8670 -0.2307 0.4417
vn 0.2105 -0.9717 0.1072
vn 0.4697 0.8497 0.2393
vn 0.8883 -0.0775 0.4526
vn 0.3446 -0.9222 0.1756
vn 0.3446 0.9222 0.1756
vn 0.8883 0.0775 0.4526
vn 0.4697 -0.8497 0.2393
vn 0.2105 0.9717 0.1072
vn 0.8670 0.2307 0.4417
vn 0.5828 -0.7564 0.2970
vn 0.0708 0.9968 0.0361
vn 0.6880 -0.2307 0.6880
vn 0.1670 -0.9717 0.1670
vn 0.3728 0.8497 0.3728
vn 0.7050 -0.0775 0.7050
vn 0.2735 -0.9222 0.2735
vn 0.2735 0.9222 0.2735
vn 0.7050 0.0775 0.7050
vn 0.3728 -0.8497 0.3728
vn 0.1670 0.9717 0.1670
vn 0.6880 0.2307 0.6880
vn 0.4625 -0.7564 0.4625
vn 0.0562 0.9968 0.0562
vn 0.6545 0.3787 0.6545
vn 0.5405 -0.6448 0.5405
vn 0.6049 0.5178 0.6049
vn 0.6049 -0.5178 0.6049
vn 0.5405 0.6448 0.5405
vn 0.6545 -0.3787 0.6545
vn 0.0562 -0.9968 0.0562
vn 0.4625 0.7564 0.4625
vn 0.2970 -0.7564 0.5828
vn 0.0361 0.9968 0.0708
vn 0.4202 0.3786 0.8247
vn 0.3470 -0.6448 0.6811
vn 0.3884 0.5178 0.7623
vn 0.3884 -0.5178 0.7623
vn 0.3470 0.6448 0.6811
vn 0.4202 -0.3786 0.8247
vn 0.0361 -0.9968 0.0708
vn 0.2970 0.7564 0.5828
vn 0.4417 -0.2307 0.8670
vn 0.1072 -0.9717 0.2105
vn 0.2393 0.8497 0.4697
vn 0.4526 -0.0775 0.8883
vn 0.1756 -0.9222 0.3446
vn 0.1756 0.9222 0.3446
vn 0.4526 0.0775 0.8883
vn 0.2393 -0.8497 0.4697
vn 0.1072 0.9717 0.2105
vn 0.4417 0.2307 0.8670
vn 0.0124 -0.9968 0.0785
vn 0.1023 0.7564 0.6460
vn 0.1522 -0.2307 0.9610
vn 0.0369 -0.9717 0.2333
vn 0.0825 0.8497 0.5207
vn 0.1560 -0.0775 0.9847
vn 0.0605 -0.9222 0.3820
vn 0.0605 0.9222 0.3820
vn 0.1560 0.0775 0.9847
vn 0.0825 -0.8497 0.5207
vn 0.0369 0.9717 0.2333
vn 0.1522 0.2307 0.9610
vn 0.1023 -0.7564 0.6460
vn 0.0124 0.9968 0.0785
vn 0.1448 0.3786 0.9141
vn 0.1196 -0.6448 0.7550
vn 0.1338 0.5178 0.8450
vn 0.1338 -0.5178 0.8450
vn 0.1196 0.6448 0.7550
vn 0.1448 -0.3786 0.9141
vn -0.1522 0.2307 0.9610
vn -0.1023 -0.7564 0.6460
vn -0.0124 0.9968 0.0785
vn -0.1448 0.3786 0.9141
vn -0.1196 -0.6448 0.7550
vn -0.1338 0.5178 0.8450
vn -0.1338 -0.5178 0.8450
vn -0.1196 0.6448 0.7550
vn -0.1448 -0.3786 0.9141
vn -0.0124 -0.9968 0.0785
vn -0.1023 0.7564 0.6460
vn -0.1522 -0.2307 0.9610
vn -0.0369 -0.9717 0.2333
vn -0.0825 0.8497 0.5207
vn -0.1560 -0.0775 0.9847
vn -0.0605 -0.9222 0.3820
vn -0.0605 0.9222 0.3820
vn -0.1560 0.0775 0.9847
vn -0.0825 -0.8497 0.5207
vn -0.0369 0.9717 0.2333
vn -0.4202 -0.3786 0.8247
vn -0.0361 -0.9968 0.0708
vn -0.2970 0.7564 0.5828
vn -0.4417 -0.2307 0.8670
vn -0.1072 -0.9717 0.2105
vn -0.2393 0.8497 0.4697
vn -0.4526 -0.0775 0.8883
vn -0.1756 -0.9222 0.3446
vn -0.1756 0.9222 0.3446
vn -0.4526 0.0775 0.8883
vn -0.2393 -0.8497 0.4697
vn -0.1072 0.9717 0.2105
vn -0.4417 0.2307 0.8670
vn -0.2970 -0.7564 0.5828
vn -0.0361 0.9968 0.0708
vn -0.4202 0.3786 0.8247
vn -0.3470 -0.6448 0.6811
vn -0.3884 0.5178 0.7623
vn -0.3884 -0.5178 0.7623
vn -0.3470 0.6448 0.6811
vn -0.3728 -0.8497 0.3728
vn -0.1670 0.9717 0.1670
vn -0.6880 0.2307 0.6880
vn -0.4625 -0.7564 0.4625
vn -0.0562 0.9968 0.0562
vn -0.6545 0.3786 0.6545
vn -0.5405 -0.6448 0.5405
vn -0.6049 0.5178 0.6049
vn -0.6049 -0.5178 0.6049
vn -0.5405 0.6448 0.5405
vn -0.6545 -0.3786 0.6545
vn -0.0562 -0.9968 0.0562
vn -0.4625 0.7564 0.4625
vn -0.6880 -0.2307 0.6880
vn -0.1670 -0.9717 0.1670
vn -0.3728 0.8497 0.3728
vn -0.7050 -0.0775 0.7050
vn -0.2735 -0.9222 0.2735
vn -0.2735 0.9222 0.2735
vn -0.7050 0.0775 0.7050
vn -0.6811 0.6448 0.3470
vn -0.8247 -0.3786 0.4202
vn -0.0708 -0.9968 0.0361
vn -0.5828 0.7564 0.2970
vn -0.8670 -0.2307 0.4417
vn -0.2105 -0.9717 0.1072
vn -0.4697 0.8497 0.2393
vn -0.8883 -0.0775 0.4526
vn -0.3446 -0.9222 0.1756
vn -0.3446 0.9222 0.1756
vn -0.8883 0.0775 0.4526
vn -0.4697 -0.8497 0.2393
vn -0.2105 0.9717 0.1072
vn -0.8670 0.2307 0.4417
vn -0.5828 -0.7564 0.2970
vn -0.0708 0.9968 0.0361
vn -0.8247 0.3786 0.4202
vn -0.6811 -0.6448 0.3470
vn -0.7623 0.5178 0.3884
vn -0.7623 -0.5178 0.3884
vn -0.3820 0.9222 0.0605
vn -0.9847 0.0775 0.1560
vn -0.5207 -0.8497 0.0825
vn -0.2333 0.9717 0.0369
vn -0.9610 0.2307 0.1522
vn -0.6460 -0.7564 0.1023
vn -0.0785 0.9968 0.0124
vn -0.9141 0.3786 0.1448
vn -0.7550 -0.6448 0.1196
vn -0.8450 0.5178 0.1338
vn -0.8450 -0.5178 0.1338
vn -0.7550 0.6448 0.1196
vn -0.9141 -0.3786 0.1448
vn -0.0785 -0.9968 0.0124
vn -0.6460 0.7564 0.1023
vn -0.9610 -0.2307 0.1522
vn -0.2333 -0.9717 0.0369
vn -0.5207 0.8497 0.0825
vn -0.9847 -0.0775 0.1560
vn -0.3820 -0.9222 0.0605
vt 0.304119 0.110613
vt 0.313828 0.110613
vt 0.258224 0.146440
vt 0.245653 0.146440
vt 0.065524 0.499964
vt 0.086912 0.499964
vt 0.092028 0.568322
vt 0.070904 0.568322
vt 0.304119 0.889315
vt 0.313828 0.889315
vt 0.374078 0.915555
vt 0.367469 0.915555
vt 0.367469 0.084372
vt 0.374078 0.084372
vt 0.070904 0.431605
vt 0.092028 0.431605
vt 0.245653 0.853487
vt 0.258224 0.853487
vt 0.434144 0.068365
vt 0.437490 0.068365
vt 0.086912 0.364930
vt 0.107252 0.364930
vt 0.193512 0.808954
vt 0.208636 0.808954
vt 0.502503 0.062985
vt 0.113152 0.301579
vt 0.132208 0.301579
vt 0.148980 0.756813
vt 0.166283 0.756813
vt 0.148980 0.243114
vt 0.166283 0.243114
vt 0.113152 0.698348
vt 0.132208 0.698348
vt 0.193512 0.190973
vt 0.208636 0.190973
vt 0.086912 0.634997
vt 0.107252 0.634997
vt 0.434144 0.931562
vt 0.437490 0.931562
vt 0.502503 0.936942
vt 0.187512 0.301579
vt 0.166283 0.364930
vt 0.216497 0.756813
vt 0.252524 0.808954
vt 0.216497 0.243114
vt 0.187512 0.698348
vt 0.252524 0.190973
vt 0.166283 0.634997
vt 0.447200 0.931562
vt 0.294707 0.146440
vt 0.153332 0.568322
vt 0.393258 0.915555
vt 0.342007 0.110613
vt 0.148980 0.499964
vt 0.342007 0.889315
vt 0.393258 0.084372
vt 0.153332 0.431605
vt 0.294707 0.853487
vt 0.447200 0.068365
vt 0.248816 0.568322
vt 0.258225 0.634997
vt 0.423132 0.915555
vt 0.462323 0.931562
vt 0.385896 0.110613
vt 0.351531 0.146440
vt 0.245653 0.499964
vt 0.385896 0.889315
vt 0.423132 0.084372
vt 0.248816 0.431605
vt 0.351531 0.853487
vt 0.462323 0.068365
vt 0.258225 0.364930
vt 0.320883 0.808954
vt 0.273648 0.301579
vt 0.294707 0.756813
vt 0.294707 0.243114
vt 0.273648 0.698348
vt 0.320883 0.190973
vt 0.407020 0.808954
vt 0.423132 0.853487
vt 0.481379 0.068365
vt 0.382187 0.301579
vt 0.374078 0.364930
vt 0.393258 0.756813
vt 0.393258 0.243114
vt 0.382187 0.698348
vt 0.407020 0.190973
vt 0.374078 0.634997
vt 0.481379 0.931562
vt 0.423132 0.146440
vt 0.369132 0.568322
vt 0.460775 0.915555
vt 0.441199 0.110613
vt 0.367469 0.499964
vt 0.441199 0.889315
vt 0.460775 0.084372
vt 0.369132 0.431605
vt 0.502503 0.931562
vt 0.502503 0.146440
vt 0.502503 0.190973
vt 0.502503 0.568322
vt 0.502503 0.634997
vt 0.502503 0.915555
vt 0.502503 0.110613
vt 0.502503 0.499964
vt 0.502503 0.889315
vt 0.502503 0.084372
vt 0.502503 0.431605
vt 0.502503 0.853487
vt 0.502503 0.068365
vt 0.502503 0.364930
vt 0.502503 0.808954
vt 0.502503 0.301579
vt 0.502503 0.756813
vt 0.502503 0.243114
vt 0.502503 0.698348
vt 0.630928 0.364930
vt 0.635874 0.431605
vt 0.597987 0.808954
vt 0.581874 0.853487
vt 0.523627 0.068365
vt 0.622819 0.301579
vt 0.611748 0.756813
vt 0.611748 0.243114
vt 0.622819 0.698348
vt 0.597987 0.190973
vt 0.630928 0.634997
vt 0.523627 0.931562
vt 0.581874 0.146440
vt 0.635874 0.568322
vt 0.544231 0.915555
vt 0.563807 0.110613
vt 0.637537 0.499964
vt 0.563807 0.889315
vt 0.544231 0.084372
vt 0.746781 0.634997
vt 0.731358 0.698348
vt 0.542683 0.931562
vt 0.653475 0.146440
vt 0.684123 0.190973
vt 0.756190 0.568322
vt 0.581874 0.915555
vt 0.619110 0.110613
vt 0.759353 0.499964
vt 0.619110 0.889315
vt 0.581874 0.084372
vt 0.756190 0.431605
vt 0.653475 0.853487
vt 0.542683 0.068365
vt 0.746781 0.364930
vt 0.684123 0.808954
vt 0.731358 0.301579
vt 0.710299 0.756813
vt 0.710299 0.243114
vt 0.710299 0.853487
vt 0.662999 0.889315
vt 0.557806 0.068365
vt 0.611748 0.084372
vt 0.838724 0.364930
vt 0.851674 0.431605
vt 0.752482 0.808954
vt 0.817495 0.301579
vt 0.788509 0.756813
vt 0.788509 0.243114
vt 0.817495 0.698348
vt 0.752482 0.190973
vt 0.838724 0.634997
vt 0.557806 0.931562
vt 0.710299 0.146440
vt 0.851674 0.568322
vt 0.611748 0.915555
vt 0.662999 0.110613
vt 0.856026 0.499964
vt 0.796371 0.190973
vt 0.838724 0.243114
vt 0.897754 0.634997
vt 0.872798 0.698348
vt 0.567516 0.931562
vt 0.746782 0.146440
vt 0.912978 0.568322
vt 0.630928 0.915555
vt 0.691178 0.110613
vt 0.918095 0.499964
vt 0.691178 0.889315
vt 0.630928 0.084372
vt 0.912978 0.431605
vt 0.746782 0.853487
vt 0.567516 0.068365
vt 0.897754 0.364930
vt 0.796371 0.808954
vt 0.872798 0.301579
vt 0.838724 0.756813
vt 0.637537 0.084372
vt 0.700887 0.110613
vt 0.934102 0.431605
vt 0.939482 0.499964
vt 0.759353 0.853487
vt 0.700887 0.889315
vt 0.570862 0.068365
vt 0.918095 0.364930
vt 0.811494 0.808954
vt 0.891854 0.301579
vt 0.856026 0.756813
vt 0.856026 0.243114
vt 0.891854 0.698348
vt 0.811494 0.190973
vt 0.918095 0.634997
vt 0.570862 0.931562
vt 0.759353 0.146440
vt 0.934102 0.568322
vt 0.637537 0.915555
s 0
usemtl Material
f 30/1/1 49/2/1 48/3/1 29/4/1
f 23/5/2 42/6/2 41/7/2 22/8/2
f 16/9/3 35/10/3 34/11/3 15/12/3
f 31/13/4 50/14/4 49/2/4 30/1/4
f 24/15/5 43/16/5 42/6/5 23/5/5
f 17/17/6 36/18/6 35/10/6 16/9/6
f 32/19/7 51/20/7 50/14/7 31/13/7
f 25/21/8 44/22/8 43/16/8 24/15/8
f 18/23/9 37/24/9 36/18/9 17/17/9
f 13/25/10 51/20/10 32/19/10
f 26/26/11 45/27/11 44/22/11 25/21/11
f 19/28/12 38/29/12 37/24/12 18/23/12
f 27/30/13 46/31/13 45/27/13 26/26/13
f 20/32/14 39/33/14 38/29/14 19/28/14
f 28/34/15 47/35/15 46/31/15 27/30/15
f 21/36/16 40/37/16 39/33/16 20/32/16
f 14/38/17 33/39/17 1/40/17
f 29/4/18 48/3/18 47/35/18 28/34/18
f 22/8/19 41/7/19 40/37/19 21/36/19
f 15/12/20 34/11/20 33/39/20 14/38/20
f 45/27/21 64/41/21 63/42/21 44/22/21
f 38/29/22 57/43/22 56/44/22 37/24/22
f 46/31/23 65/45/23 64/41/23 45/27/23
f 39/33/24 58/46/24 57/43/24 38/29/24
f 47/35/25 66/47/25 65/45/25 46/31/25
f 40/37/26 59/48/26 58/46/26 39/33/26
f 33/39/27 52/49/27 1/40/27
f 48/3/28 67/50/28 66/47/28 47/35/28
f 41/7/29 60/51/29 59/48/29 40/37/29
f 34/11/30 53/52/30 52/49/30 33/39/30
f 49/2/31 68/53/31 67/50/31 48/3/31
f 42/6/32 61/54/32 60/51/32 41/7/32
f 35/10/33 54/55/33 53/52/33 34/11/33
f 50/14/34 69/56/34 68/53/34 49/2/34
f 43/16/35 62/57/35 61/54/35 42/6/35
f 36/18/36 55/58/36 54/55/36 35/10/36
f 51/20/37 70/59/37 69/56/37 50/14/37
f 44/22/38 63/42/38 62/57/38 43/16/38
f 37/24/39 56/44/39 55/58/39 36/18/39
f 13/25/40 70/59/40 51/20/40
f 60/51/41 79/60/41 78/61/41 59/48/41
f 53/52/42 72/62/42 71/63/42 52/49/42
f 68/53/43 87/64/43 86/65/43 67/50/43
f 61/54/44 80/66/44 79/60/44 60/51/44
f 54/55/45 73/67/45 72/62/45 53/52/45
f 69/56/46 88/68/46 87/64/46 68/53/46
f 62/57/47 81/69/47 80/66/47 61/54/47
f 55/58/48 74/70/48 73/67/48 54/55/48
f 70/59/49 89/71/49 88/68/49 69/56/49
f 63/42/50 82/72/50 81/69/50 62/57/50
f 56/44/51 75/73/51 74/70/51 55/58/51
f 13/25/52 89/71/52 70/59/52
f 64/41/53 83/74/53 82/72/53 63/42/53
f 57/43/54 76/75/54 75/73/54 56/44/54
f 65/45/55 84/76/55 83/74/55 64/41/55
f 58/46/56 77/77/56 76/75/56 57/43/56
f 66/47/57 85/78/57 84/76/57 65/45/57
f 59/48/58 78/61/58 77/77/58 58/46/58
f 52/49/59 71/63/59 1/40/59
f 67/50/60 86/65/60 85/78/60 66/47/60
f 75/73/61 94/79/61 93/80/61 74/70/61
f 13/25/62 108/81/62 89/71/62
f 83/74/63 102/82/63 101/83/63 82/72/63
f 76/75/64 95/84/64 94/79/64 75/73/64
f 84/76/65 103/85/65 102/82/65 83/74/65
f 77/77/66 96/86/66 95/84/66 76/75/66
f 85/78/67 104/87/67 103/85/67 84/76/67
f 78/61/68 97/88/68 96/86/68 77/77/68
f 71/63/69 90/89/69 1/40/69
f 86/65/70 105/90/70 104/87/70 85/78/70
f 79/60/71 98/91/71 97/88/71 78/61/71
f 72/62/72 91/92/72 90/89/72 71/63/72
f 87/64/73 106/93/73 105/90/73 86/65/73
f 80/66/74 99/94/74 98/91/74 79/60/74
f 73/67/75 92/95/75 91/92/75 72/62/75
f 88/68/76 107/96/76 106/93/76 87/64/76
f 81/69/77 100/97/77 99/94/77 80/66/77
f 74/70/78 93/80/78 92/95/78 73/67/78
f 89/71/79 108/81/79 107/96/79 88/68/79
f 82/72/80 101/83/80 100/97/80 81/69/80
f 90/89/81 109/98/81 1/40/81
f 105/90/82 124/99/82 123/100/82 104/87/82
f 98/91/83 117/101/83 116/102/83 97/88/83
f 91/92/84 110/103/84 109/98/84 90/89/84
f 106/93/85 125/104/85 124/99/85 105/90/85
f 99/94/86 118/105/86 117/101/86 98/91/86
f 92/95/87 111/106/87 110/103/87 91/92/87
f 107/96/88 126/107/88 125/104/88 106/93/88
f 100/97/89 119/108/89 118/105/89 99/94/89
f 93/80/90 112/109/90 111/106/90 92/95/90
f 108/81/91 127/110/91 126/107/91 107/96/91
f 101/83/92 120/111/92 119/108/92 100/97/92
f 94/79/93 113/112/93 112/109/93 93/80/93
f 13/25/94 127/110/94 108/81/94
f 102/82/95 121/113/95 120/111/95 101/83/95
f 95/84/96 114/114/96 113/112/96 94/79/96
f 103/85/97 122/115/97 121/113/97 102/82/97
f 96/86/98 115/116/98 114/114/98 95/84/98
f 104/87/99 123/100/99 122/115/99 103/85/99
f 97/88/100 116/102/100 115/116/100 96/86/100
f 120/111/101 139/117/101 138/118/101 119/108/101
f 113/112/102 132/119/102 131/120/102 112/109/102
f 13/25/103 146/121/103 127/110/103
f 121/113/104 140/122/104 139/117/104 120/111/104
f 114/114/105 133/123/105 132/119/105 113/112/105
f 122/115/106 141/124/106 140/122/106 121/113/106
f 115/116/107 134/125/107 133/123/107 114/114/107
f 123/100/108 142/126/108 141/124/108 122/115/108
f 116/102/109 135/127/109 134/125/109 115/116/109
f 109/98/110 128/128/110 1/40/110
f 124/99/111 143/129/111 142/126/111 123/100/111
f 117/101/112 136/130/112 135/127/112 116/102/112
f 110/103/113 129/131/113 128/128/113 109/98/113
f 125/104/114 144/132/114 143/129/114 124/99/114
f 118/105/115 137/133/115 136/130/115 117/101/115
f 111/106/116 130/134/116 129/131/116 110/103/116
f 126/107/117 145/135/117 144/132/117 125/104/117
f 119/108/118 138/118/118 137/133/118 118/105/118
f 112/109/119 131/120/119 130/134/119 111/106/119
f 127/110/120 146/121/120 145/135/120 126/107/120
f 135/127/121 154/136/121 153/137/121 134/125/121
f 128/128/122 147/138/122 1/40/122
f 143/129/123 162/139/123 161/140/123 142/126/123
f 136/130/124 155/141/124 154/136/124 135/127/124
f 129/131/125 148/142/125 147/138/125 128/128/125
f 144/132/126 163/143/126 162/139/126 143/129/126
f 137/133/127 156/144/127 155/141/127 136/130/127
f 130/134/128 149/145/128 148/142/128 129/131/128
f 145/135/129 164/146/129 163/143/129 144/132/129
f 138/118/130 157/147/130 156/144/130 137/133/130
f 131/120/131 150/148/131 149/145/131 130/134/131
f 146/121/132 165/149/132 164/146/132 145/135/132
f 139/117/133 158/150/133 157/147/133 138/118/133
f 132/119/134 151/151/134 150/148/134 131/120/134
f 13/25/135 165/149/135 146/121/135
f 140/122/136 159/152/136 158/150/136 139/117/136
f 133/123/137 152/153/137 151/151/137 132/119/137
f 141/124/138 160/154/138 159/152/138 140/122/138
f 134/125/139 153/137/139 152/153/139 133/123/139
f 142/126/140 161/140/140 160/154/140 141/124/140
f 150/148/141 169/155/141 168/156/141 149/145/141
f 165/149/142 184/157/142 183/158/142 164/146/142
f 158/150/143 177/159/143 176/160/143 157/147/143
f 151/151/144 170/161/144 169/155/144 150/148/144
f 13/25/145 184/157/145 165/149/145
f 159/152/146 178/162/146 177/159/146 158/150/146
f 152/153/147 171/163/147 170/161/147 151/151/147
f 160/154/148 179/164/148 178/162/148 159/152/148
f 153/137/149 172/165/149 171/163/149 152/153/149
f 161/140/150 180/166/150 179/164/150 160/154/150
f 154/136/151 173/167/151 172/165/151 153/137/151
f 147/138/152 166/168/152 1/40/152
f 162/139/153 181/169/153 180/166/153 161/140/153
f 155/141/154 174/170/154 173/167/154 154/136/154
f 148/142/155 167/171/155 166/168/155 147/138/155
f 163/143/156 182/172/156 181/169/156 162/139/156
f 156/144/157 175/173/157 174/170/157 155/141/157
f 149/145/158 168/156/158 167/171/158 148/142/158
f 164/146/159 183/158/159 182/172/159 163/143/159
f 157/147/160 176/160/160 175/173/160 156/144/160
f 180/166/161 199/174/161 198/175/161 179/164/161
f 173/167/162 192/176/162 191/177/162 172/165/162
f 166/168/163 185/178/163 1/40/163
f 181/169/164 200/179/164 199/174/164 180/166/164
f 174/170/165 193/180/165 192/176/165 173/167/165
f 167/171/166 186/181/166 185/178/166 166/168/166
f 182/172/167 201/182/167 200/179/167 181/169/167
f 175/173/168 194/183/168 193/180/168 174/170/168
f 168/156/169 187/184/169 186/181/169 167/171/169
f 183/158/170 202/185/170 201/182/170 182/172/170
f 176/160/171 195/186/171 194/183/171 175/173/171
f 169/155/172 188/187/172 187/184/172 168/156/172
f 184/157/173 203/188/173 202/185/173 183/158/173
f 177/159/174 196/189/174 195/186/174 176/160/174
f 170/161/175 189/190/175 188/187/175 169/155/175
f 13/25/176 203/188/176 184/157/176
f 178/162/177 197/191/177 196/189/177 177/159/177
f 171/163/178 190/192/178 189/190/178 170/161/178
f 179/164/179 198/175/179 197/191/179 178/162/179
f 172/165/180 191/177/180 190/192/180 171/163/180
f 202/185/181 11/193/181 10/194/181 201/182/181
f 195/186/182 209/195/182 6/196/182 194/183/182
f 188/187/183 206/197/183 2/198/183 187/184/183
f 203/188/184 12/199/184 11/193/184 202/185/184
f 196/189/185 210/200/185 209/195/185 195/186/185
f 189/190/186 3/201/186 206/197/186 188/187/186
f 13/25/187 12/199/187 203/188/187
f 197/191/188 7/202/188 210/200/188 196/189/188
f 190/192/189 4/203/189 3/201/189 189/190/189
f 198/175/190 8/204/190 7/202/190 197/191/190
f 191/177/191 5/205/191 4/203/191 190/192/191
f 199/174/192 9/206/192 8/204/192 198/175/192
f 192/176/193 207/207/193 5/205/193 191/177/193
f 185/178/194 204/208/194 1/40/194
f 200/179/195 211/209/195 9/206/195 199/174/195
f 193/180/196 208/210/196 207/207/196 192/176/196
f 186/181/197 205/211/197 204/208/197 185/178/197
f 201/182/198 10/194/198 211/209/198 200/179/198
f 194/183/199 6/196/199 208/210/199 193/180/199
f 187/184/200 2/198/200 205/211/200 186/181/200
